<?xml version="1.0" standalone="no"?>
<!DOCTYPE svg PUBLIC "-//W3C//DTD SVG 20010904//EN"
 "http://www.w3.org/TR/2001/REC-SVG-20010904/DTD/svg10.dtd">
<svg version="1.0" xmlns="http://www.w3.org/2000/svg"
 width="263.000000pt" height="263.000000pt" viewBox="0 0 263.000000 263.000000"
 preserveAspectRatio="xMidYMid meet">
<metadata>
Created by potrace 1.14, written by Peter Selinger 2001-2017
</metadata>
<g transform="translate(0.000000,263.000000) scale(0.100000,-0.100000)"
fill="#000000" stroke="none">
<path d="M379 2615 c-177 -48 -318 -190 -365 -368 -19 -74 -20 -1774 -1 -1857
45 -190 204 -344 392 -380 69 -13 1786 -10 1845 4 178 40 338 213 370 398 8
43 10 339 8 948 -3 973 2 878 -61 1010 -55 113 -208 224 -343 249 -89 17
-1783 13 -1845 -4z"/>
</g>
</svg>
