<?xml version="1.0" standalone="no"?>
<!DOCTYPE svg PUBLIC "-//W3C//DTD SVG 20010904//EN"
 "http://www.w3.org/TR/2001/REC-SVG-20010904/DTD/svg10.dtd">
<svg version="1.0" xmlns="http://www.w3.org/2000/svg"
 width="435.000000pt" height="435.000000pt" viewBox="0 0 435.000000 435.000000"
 preserveAspectRatio="xMidYMid meet">
<metadata>
Created by potrace 1.14, written by Peter Selinger 2001-2017
</metadata>
<g transform="translate(0.000000,435.000000) scale(0.100000,-0.100000)"
fill="#000000" stroke="none">
<path d="M3282 2929 c-55 -31 -98 -86 -106 -136 -2 -15 -5 -82 -6 -148 l-1
-120 -55 115 c-31 63 -65 130 -76 148 l-20 33 -31 -63 c-17 -35 -31 -65 -32
-68 -8 -36 -171 -341 -183 -344 -10 -3 -37 -8 -62 -10 -51 -5 -77 -9 -284 -36
-82 -11 -151 -22 -154 -24 -2 -3 30 -38 72 -78 42 -40 126 -121 187 -180 l109
-106 -6 -54 c-3 -29 -8 -56 -10 -59 -2 -4 -6 -24 -9 -45 -3 -22 -8 -48 -10
-60 -3 -12 -7 -39 -11 -60 -3 -21 -12 -73 -20 -114 -29 -148 -43 -141 119 -56
155 81 276 145 308 162 17 10 38 2 132 -48 62 -32 141 -73 177 -91 36 -18 67
-34 70 -37 3 -3 29 -18 58 -32 l52 -27 0 28 c0 15 -3 31 -7 35 -4 3 -8 20 -9
36 -1 16 -7 53 -13 82 -5 29 -13 71 -17 93 -12 80 -14 90 -17 105 -2 8 -7 33
-11 55 -4 22 -10 48 -13 58 -4 16 16 17 324 17 l329 0 51 25 c57 29 101 83
113 142 4 21 7 196 6 389 l-1 351 -30 48 c-22 36 -45 57 -84 77 l-54 28 -361
0 -362 -1 -52 -30z m-183 -432 c63 -127 71 -149 71 -200 0 -31 -4 -57 -10 -57
-5 0 -37 56 -71 125 -34 69 -65 125 -68 124 -3 0 -28 -47 -56 -104 -27 -58
-57 -114 -65 -125 -12 -16 -40 -23 -142 -38 -71 -10 -131 -22 -135 -26 -5 -4
38 -51 94 -104 l103 -97 -15 -55 c-7 -30 -16 -78 -19 -105 -4 -28 -10 -65 -15
-83 -12 -39 -4 -40 52 -8 23 13 77 42 119 65 l78 41 37 -18 c21 -9 40 -19 43
-22 8 -8 167 -90 174 -90 4 0 5 4 2 9 -3 5 -8 31 -10 57 -3 27 -10 73 -15 103
-6 29 -11 55 -11 58 0 2 17 -5 39 -16 29 -15 40 -28 44 -53 4 -18 13 -69 21
-113 36 -186 37 -195 22 -195 -7 0 -16 4 -22 9 -5 5 -80 45 -167 90 l-158 81
-137 -72 c-75 -39 -154 -82 -174 -95 -44 -27 -44 -29 -23 87 9 47 18 103 21
125 3 22 7 46 10 53 2 8 7 35 10 62 l6 47 -84 80 c-45 44 -112 108 -148 141
-51 48 -61 62 -45 63 11 0 29 2 40 4 26 6 86 13 160 21 34 3 89 11 124 18 l64
11 86 172 c47 95 89 173 92 173 3 0 38 -64 78 -143z"/>
<path d="M1827 2804 c-1 -1 -34 -5 -73 -8 -89 -8 -155 -16 -172 -21 -12 -5
-12 -26 4 -135 2 -19 7 -57 9 -85 3 -27 8 -70 10 -95 10 -85 17 -155 16 -177
-1 -20 3 -21 66 -17 59 4 88 16 78 34 -1 3 -6 37 -9 75 -4 39 -9 78 -12 88 -4
12 0 17 13 18 60 1 140 12 149 20 8 7 9 22 4 46 -5 20 -8 41 -7 47 2 13 -120
5 -143 -9 -14 -9 -28 13 -33 53 -3 27 0 42 7 43 6 0 29 3 51 5 22 2 56 5 75 7
34 3 35 4 35 47 0 64 -3 70 -37 68 -16 -1 -30 -3 -31 -4z"/>
<path d="M2545 2726 c-17 -7 -43 -27 -57 -45 -15 -17 -30 -27 -33 -21 -3 5 -4
14 -1 18 2 4 1 14 -3 21 -6 9 -23 10 -60 5 l-52 -7 5 -66 c4 -36 8 -77 11 -91
3 -14 7 -60 10 -104 3 -43 7 -82 10 -86 4 -7 26 -6 100 4 16 3 20 10 18 42 0
21 -3 76 -5 121 -3 76 -1 83 21 102 43 37 85 24 97 -30 11 -53 30 -188 28
-203 -2 -13 8 -15 64 -10 37 4 68 7 68 8 1 0 -2 26 -6 56 -5 30 -14 93 -20
139 -6 46 -19 95 -27 108 -33 50 -106 66 -168 39z"/>
<path d="M2237 2694 c-3 -3 -39 -11 -59 -13 -4 -1 -5 -20 -3 -43 3 -24 7 -72
11 -108 3 -35 7 -66 9 -68 2 -3 -2 -17 -11 -33 -11 -23 -21 -29 -47 -29 -17 0
-37 4 -44 8 -12 8 -46 166 -46 220 l0 33 -59 -2 c-51 -2 -61 -7 -60 -29 0 -3
3 -32 6 -65 4 -33 9 -79 11 -103 6 -63 34 -113 80 -140 83 -48 235 -11 276 68
15 26 18 49 14 100 -6 98 -16 183 -20 191 -5 7 -53 18 -58 13z"/>
<path d="M537 2682 c-16 -3 -18 -14 -17 -75 2 -106 3 -103 -18 -84 -24 22 -86
31 -113 16 -40 -21 -58 -44 -70 -91 -17 -63 -1 -118 46 -155 41 -32 97 -33
131 -2 26 24 34 24 34 0 0 -16 7 -19 42 -17 l43 1 0 203 c0 174 -2 202 -15
203 -8 0 -22 2 -30 3 -8 1 -23 1 -33 -2z m-24 -230 c35 -31 11 -103 -37 -109
-29 -4 -67 25 -67 52 -1 49 12 70 46 77 23 5 32 2 58 -20z"/>
<path d="M1048 2628 c-3 -11 -2 -349 1 -383 1 -8 35 -10 84 -6 4 1 7 91 7 201
l0 200 -44 0 c-26 0 -45 -5 -48 -12z"/>
<path d="M720 2533 c-53 -27 -78 -71 -76 -136 1 -47 6 -58 34 -87 28 -28 41
-33 97 -37 54 -5 69 -2 99 17 20 12 36 26 36 31 0 5 -15 15 -32 23 -30 12 -35
11 -53 -5 -33 -29 -87 -12 -98 31 -5 18 0 20 46 21 29 1 76 1 105 1 28 -1 52
1 52 4 0 33 -27 97 -50 117 -38 35 -113 44 -160 20z m102 -62 c22 -26 14 -31
-44 -31 -52 0 -54 1 -36 30 16 26 59 26 80 1z"/>
<path d="M1210 2472 c-37 -37 -40 -44 -40 -94 0 -82 15 -114 63 -137 47 -23
77 -20 117 12 22 17 25 17 28 3 3 -12 15 -16 46 -16 l42 0 0 130 -1 130 -42 0
c-37 0 -43 -3 -43 -22 l0 -21 -24 23 c-15 13 -42 24 -66 27 -37 4 -44 1 -80
-35z m153 -60 c44 -49 3 -123 -58 -108 -33 8 -59 59 -45 86 25 46 72 56 103
22z"/>
<path d="M329 2212 c-4 -24 -3 -332 1 -333 3 -1 15 -3 28 -4 l22 -2 0 171 0
172 -25 2 c-14 1 -26 -2 -26 -6z"/>
<path d="M450 2195 c-12 -15 -4 -41 15 -49 20 -7 52 31 37 46 -17 17 -39 18
-52 3z"/>
<path d="M2070 2191 c-12 -24 11 -45 40 -36 21 7 24 14 12 31 -14 21 -41 24
-52 5z"/>
<path d="M828 2074 c-40 -26 -59 -67 -51 -116 10 -63 40 -89 108 -93 38 -3
107 34 103 54 -4 22 -39 26 -53 8 -21 -29 -60 -31 -84 -6 -37 40 -24 52 54 54
92 2 92 2 90 23 -5 54 -32 80 -95 92 -28 5 -44 1 -72 -16z m102 -39 c17 -21
13 -23 -43 -26 -54 -3 -70 7 -43 27 26 18 70 18 86 -1z"/>
<path d="M1433 2087 c-18 -5 -33 -14 -33 -18 0 -14 -27 -10 -40 6 -18 22 -73
18 -104 -6 l-26 -20 0 20 c0 26 -26 28 -37 4 -4 -10 -6 -59 -3 -108 5 -82 7
-90 25 -90 18 0 20 8 23 65 3 84 15 108 53 106 16 -1 32 -5 36 -10 4 -4 8 -37
9 -74 1 -37 2 -72 3 -78 1 -6 12 -11 25 -11 22 0 23 3 25 75 2 80 9 96 42 105
30 8 50 -32 54 -105 3 -82 2 -78 25 -78 20 0 21 5 18 97 -3 96 -3 97 -33 114
-24 13 -37 14 -62 6z"/>
<path d="M2274 2090 c-35 -8 -80 -38 -89 -60 -4 -8 -8 -31 -11 -51 -4 -29 1
-42 29 -74 31 -35 39 -39 80 -39 50 0 61 6 72 42 7 23 6 23 -23 8 -50 -26
-102 5 -102 61 0 57 51 89 101 63 16 -9 19 -7 19 13 0 30 -34 46 -76 37z"/>
<path d="M455 2077 c-3 -7 -4 -56 -3 -108 3 -90 4 -94 25 -95 23 -1 23 0 20
105 -2 92 -4 106 -20 109 -9 2 -19 -3 -22 -11z"/>
<path d="M540 2080 c0 -16 99 -210 108 -210 7 0 103 193 103 207 -1 4 -11 8
-24 8 -20 2 -28 -9 -52 -68 l-28 -69 -33 71 c-25 54 -38 71 -53 71 -12 0 -21
-5 -21 -10z"/>
<path d="M1599 2071 c-2 -46 1 -127 6 -151 12 -57 112 -75 166 -31 30 26 32
30 33 105 1 64 -2 81 -16 90 -26 16 -31 3 -33 -80 -1 -41 -7 -80 -13 -86 -14
-14 -69 -15 -83 -1 -6 6 -12 46 -13 89 -2 72 -3 78 -24 79 -14 1 -22 -4 -23
-14z"/>
<path d="M1883 2075 c-33 -23 -31 -68 5 -92 15 -11 39 -24 55 -31 30 -13 36
-36 11 -46 -25 -10 -41 -7 -58 9 -14 15 -46 11 -46 -5 0 -15 57 -50 82 -50 32
0 84 34 90 58 7 26 -19 55 -72 82 -60 31 -49 69 12 46 32 -12 47 -2 32 22 -15
23 -82 27 -111 7z"/>
<path d="M2079 2088 c-1 -2 -3 -48 -4 -103 -2 -98 2 -114 32 -115 18 0 23 208
5 215 -14 5 -31 7 -33 3z"/>
</g>
</svg>
